<?xml version="1.0" encoding="utf-8"?>
<!-- Generator: Adobe Illustrator 25.2.0, SVG Export Plug-In . SVG Version: 6.00 Build 0)  -->
<svg version="1.1" id="Layer_1" xmlns="http://www.w3.org/2000/svg" xmlns:xlink="http://www.w3.org/1999/xlink" x="0px" y="0px"
	 viewBox="0 0 15 15" style="enable-background:new 0 0 15 15;" xml:space="preserve">
<style type="text/css">
	.st0{fill:none;stroke:#000000;stroke-width:0.75;stroke-miterlimit:10;}
</style>
<circle class="st0" cx="7.5" cy="7.5" r="7"/>
<g>
	<path d="M6.9,10l0-0.3c0-0.6,0.1-1.1,0.4-1.5C7.4,7.9,7.8,7.5,8.3,7C8.7,6.6,9,6.4,9.1,6.2c0.1-0.2,0.2-0.4,0.2-0.7
		c0-0.5-0.2-0.9-0.5-1.2C8.4,4,7.9,3.8,7.5,3.8C7,3.8,6.6,4,6.3,4.2C5.9,4.5,5.7,5,5.6,5.7L4.5,5.5c0.1-0.9,0.4-1.6,1-2
		C6,3.1,6.6,2.9,7.5,2.9c0.8,0,1.5,0.2,2.1,0.7c0.6,0.5,0.8,1.1,0.8,1.8c0,0.4-0.1,0.8-0.3,1.1S9.6,7.3,9,7.8
		c-0.5,0.4-0.8,0.8-0.9,1C8,9,8,9.4,8,10H6.9z M6.8,12.3V11h1.3v1.3H6.8z"/>
</g>
</svg>
